<svg width="214" height="87" viewBox="0 0 214 87" fill="none" xmlns="http://www.w3.org/2000/svg">
<g clip-path="url(#clip0_55_264)">
<mask id="mask0_55_264" style="mask-type:alpha" maskUnits="userSpaceOnUse" x="0" y="0" width="362" height="87">
<path d="M0 0H350C356.627 0 362 5.37258 362 12V75C362 81.6274 356.627 87 350 87H0V0Z" fill="white"/>
<mask id="mask1_55_264" style="mask-type:alpha" maskUnits="userSpaceOnUse" x="0" y="0" width="362" height="87">
<path d="M0 0H350C356.627 0 362 5.37258 362 12V75C362 81.6274 356.627 87 350 87H0V0Z" fill="white"/>
</mask>
<g mask="url(#mask1_55_264)">
<path d="M0 0V-1H-1V0H0ZM0 87H-1V88H0V87ZM0 0V1H350V0V-1H0V0ZM362 12H361V75H362H363V12H362ZM350 87V86H0V87V88H350V87ZM0 87H1V0H0H-1V87H0ZM362 75H361C361 81.0751 356.075 86 350 86V87V88C357.18 88 363 82.1797 363 75H362ZM350 0V1C356.075 1 361 5.92487 361 12H362H363C363 4.8203 357.18 -1 350 -1V0Z" fill="#E5E5E5"/>
</g>
</mask>
<g mask="url(#mask0_55_264)">
<path opacity="0.1" d="M-38.4848 101.671C-4.31425 154.703 71.6531 172.724 131.193 141.923C190.733 111.121 211.299 43.1616 177.128 -9.86993C142.958 -62.9014 66.9904 -80.9226 7.45048 -50.1213C-52.0894 -19.3201 -72.6553 48.6398 -38.4848 101.671Z" fill="#0071FF"/>
<path opacity="0.1" d="M-70.976 101.814C-36.8055 154.845 38.8743 173.015 98.0595 142.397C157.245 111.78 177.523 43.9685 143.353 -9.06298C109.182 -62.0945 33.5023 -80.2644 -25.6829 -49.6466C-84.8682 -19.0288 -105.147 48.7824 -70.976 101.814Z" fill="#0071FF"/>
<path opacity="0.25" d="M-104.129 95.8989C-69.958 148.93 5.72175 167.1 64.907 136.483C124.092 105.865 144.371 38.0536 110.2 -14.978C76.0295 -68.0095 0.349758 -86.1794 -58.8355 -55.5616C-118.021 -24.9438 -138.299 42.8674 -104.129 95.8989Z" fill="#0071FF"/>
<path d="M63.1953 39.31L67.4051 35.1013C62.5069 32.8504 56.5099 33.7381 52.4806 37.7684C47.311 42.9371 47.311 51.3494 52.4806 56.52C57.6492 61.6897 66.0626 61.6897 71.2314 56.52C75.2607 52.4908 76.1493 46.4928 73.8984 41.5946L69.6888 45.8041C70.1049 48.2621 69.3747 50.8767 67.4815 52.7691C64.3794 55.8722 59.3326 55.8722 56.2307 52.7691C53.1287 49.6671 53.1287 44.6204 56.2307 41.5192C58.1238 39.625 60.7383 38.8939 63.1953 39.31Z" fill="#E6F1FF"/>
<path d="M77.8216 37.6723C82.045 44.7938 81.0998 54.1532 74.9821 60.27C67.7437 67.5084 55.9679 67.5084 48.7305 60.27C41.4921 53.0327 41.4921 41.2558 48.7305 34.0175C54.8463 27.9007 64.2068 26.9554 71.3282 31.1781L75.1693 27.3359C65.8931 21.0982 53.174 22.0731 44.9795 30.2665C35.6735 39.5715 35.6735 54.7149 44.9795 64.0199C54.2856 73.327 69.427 73.327 78.733 64.0199C86.9283 55.8255 87.9022 43.1064 81.6626 33.8291L77.8216 37.6723Z" fill="#E6F1FF"/>
<path d="M100.912 18.4391C100.714 17.923 100.212 17.6049 99.6444 17.6307L90.9616 18.038L91.3698 9.35621C91.3946 8.78751 91.0765 8.28821 90.5604 8.08811C90.0473 7.89001 89.438 8.03261 89.0199 8.44881L79.7545 17.715L79.2858 27.7215L62.4413 44.5649C61.5844 44.3707 60.6491 44.6006 59.9813 45.2682C58.945 46.3046 58.945 47.9829 59.9813 49.0192C61.0166 50.0555 62.696 50.0555 63.7323 49.0192C64.399 48.3515 64.6299 47.4162 64.4357 46.5583L81.2792 29.7138L91.2847 29.2462L100.551 19.9787C100.968 19.5617 101.11 18.9542 100.912 18.4391Z" fill="#E6F1FF"/>
</g>
</g>
<defs>
<clipPath id="clip0_55_264">
<rect width="214" height="87" fill="white"/>
</clipPath>
</defs>
</svg>
