<svg width="254" height="254" viewBox="0 0 254 254" fill="none" xmlns="http://www.w3.org/2000/svg">
<path d="M126.857 151.354C98.6948 151.354 75.7849 128.444 75.7849 100.282C75.7849 72.1205 98.6948 49.2106 126.857 49.2106C155.016 49.2106 177.928 72.1205 177.928 100.282C177.928 128.444 155.016 151.354 126.857 151.354Z" fill="#737373"/>
<path d="M126.857 0.406494C57.1321 0.406494 0.406616 57.132 0.406616 126.856C0.406616 196.581 57.1321 253.306 126.857 253.306C196.581 253.306 253.307 196.581 253.307 126.856C253.307 57.132 196.581 0.406494 126.857 0.406494ZM210.654 197.376C200.698 182.615 186.889 170.49 170.867 162.721C164.513 159.641 157.095 159.686 150.503 162.853C143.09 166.416 135.132 168.22 126.857 168.22C118.581 168.22 110.626 166.413 103.21 162.853C96.6266 159.691 89.2054 159.641 82.8464 162.721C66.8238 170.49 53.0154 182.615 43.0568 197.376C26.9808 178.302 17.2666 153.698 17.2666 126.856C17.2666 66.4274 66.4276 17.2665 126.857 17.2665C187.286 17.2665 236.447 66.4274 236.447 126.856C236.447 153.698 226.732 178.302 210.654 197.376Z" fill="#737373"/>
</svg>
